<svg width="19" height="18" viewBox="0 0 19 18" fill="none" xmlns="http://www.w3.org/2000/svg">
<path d="M6.47647 5.74235L8.72462 1.21489C8.79007 1.08386 8.89072 0.973657 9.01528 0.896632C9.13985 0.819606 9.28342 0.778806 9.42988 0.778806C9.57634 0.778806 9.7199 0.819606 9.84447 0.896632C9.96904 0.973657 10.0697 1.08386 10.1351 1.21489L12.3833 5.74235L17.4092 6.47269C17.5541 6.49279 17.6905 6.55325 17.8028 6.64715C17.915 6.74106 17.9986 6.86463 18.044 7.00377C18.0894 7.14291 18.0948 7.29201 18.0595 7.43404C18.0242 7.57608 17.9497 7.70533 17.8444 7.80705L14.2083 11.329L15.0667 16.3047C15.1766 16.9433 14.5016 17.4296 13.9245 17.1285L9.42988 14.7782L4.93443 17.1285C4.35812 17.4305 3.68315 16.9433 3.79305 16.3038L4.65147 11.3281L1.01531 7.80618C0.910593 7.7044 0.83653 7.57527 0.80154 7.43349C0.766551 7.29171 0.772039 7.14295 0.817381 7.00414C0.862722 6.86532 0.946098 6.742 1.05803 6.64821C1.16996 6.55442 1.30597 6.49391 1.45058 6.47356L6.47647 5.74235Z" fill="#86469C" stroke="#86469C" stroke-width="1.5" stroke-linecap="round" stroke-linejoin="round"/>
</svg>
