<svg width="25" height="25" viewBox="0 0 25 25" fill="none" xmlns="http://www.w3.org/2000/svg">
<path d="M15.4515 16.1913C15.3969 16.183 15.3412 16.1897 15.2894 16.2108C15.2376 16.2319 15.1912 16.2667 15.1542 16.3124C15.1166 16.3573 15.089 16.4114 15.0737 16.4705C15.0583 16.5296 15.0558 16.5919 15.0661 16.6523C15.2591 17.7851 15.9089 19.3399 17.9036 20.3079C18.14 20.4219 18.5051 20.511 18.9681 20.6227C20.7013 21.0415 23.5997 21.7431 24.3117 24.7104C24.3236 24.76 24.3442 24.8065 24.3722 24.8472C24.4002 24.888 24.4352 24.9221 24.475 24.9478C24.5148 24.9734 24.5588 24.99 24.6044 24.9967C24.65 25.0034 24.6963 24.9999 24.7407 24.9866C24.7852 24.9732 24.8268 24.9503 24.8632 24.919C24.8997 24.8877 24.9303 24.8486 24.9532 24.8041C24.9762 24.7596 24.9911 24.7105 24.997 24.6596C25.003 24.6086 24.9999 24.5569 24.988 24.5073C24.1648 21.0798 20.881 20.2852 19.1164 19.8586C18.708 19.7594 18.3547 19.6743 18.182 19.5899C16.9832 19.0086 16.2089 18.1461 15.8732 17.0226C19.2038 17.2992 20.7118 15.8171 20.7782 15.7499C20.8192 15.7084 20.8508 15.6567 20.8704 15.599C20.89 15.5413 20.8971 15.4792 20.8911 15.4179C20.8851 15.3565 20.8662 15.2976 20.8358 15.246C20.8055 15.1944 20.7647 15.1515 20.7167 15.1209C18.7947 13.8943 18.7947 9.65587 18.7947 8.05971C18.7947 3.59624 16.1033 0.0578149 12.6531 0.00234385C12.6203 0.00112183 12.5874 0.000340495 12.5545 0C9.05394 0.0218759 6.20523 3.56421 6.20523 7.8972C6.20523 9.49336 6.20523 13.7326 4.28324 14.9584C4.2337 14.9906 4.19193 15.0358 4.16157 15.09C4.13121 15.1443 4.11318 15.2061 4.10905 15.2699C4.10491 15.3337 4.11479 15.3977 4.13784 15.4563C4.16088 15.5149 4.19639 15.5663 4.24128 15.6061C4.33779 15.6897 6.47101 17.5132 9.09591 16.9593C8.7448 18.0359 7.98104 18.8641 6.81722 19.4289C6.64866 19.511 6.31294 19.6008 5.92407 19.7039C4.14755 20.1758 0.840026 21.0548 0.0119196 24.5065C2.52032e-05 24.5561 -0.00300574 24.6078 0.00299977 24.6587C0.00900527 24.7097 0.0239296 24.7588 0.0469207 24.8032C0.0933533 24.893 0.169825 24.9586 0.259512 24.9854C0.349199 25.0122 0.444756 24.9982 0.525161 24.9463C0.605565 24.8944 0.664231 24.809 0.688253 24.7088C1.40795 21.7056 4.3371 20.9282 6.08633 20.4626C6.52486 20.3462 6.87107 20.254 7.09628 20.1454C9.09101 19.1774 9.74007 17.6226 9.93381 16.4897C9.9453 16.4234 9.94109 16.3548 9.92159 16.2908C9.90208 16.2268 9.86796 16.1696 9.8226 16.1249C9.77759 16.0798 9.72282 16.0485 9.6637 16.0343C9.60457 16.02 9.54315 16.0232 9.48548 16.0436C7.59217 16.7093 5.84293 15.7936 5.07847 15.2858C6.90464 13.5779 6.90464 9.64727 6.90464 7.8972C6.90464 3.99313 9.44072 0.800815 12.5839 0.77972L12.658 0.784408C15.7578 0.833628 18.0953 3.9611 18.0953 8.05971C18.0953 9.81056 18.0953 13.7498 19.9291 15.4577C19.2976 15.8608 17.8575 16.5132 15.4515 16.1913Z" fill="black"/>
</svg>
