<svg width="21" height="21" viewBox="0 0 21 21" fill="none" xmlns="http://www.w3.org/2000/svg">
<path d="M10.5 0C7.6125 0 5.25 2.80636 5.25 6.2642C5.25 9.72204 7.6125 12.5284 10.5 12.5284C13.3875 12.5284 15.75 9.72204 15.75 6.2642C15.75 2.80636 13.3875 0 10.5 0ZM5.01375 12.5284C2.23125 12.6537 0 14.8336 0 17.5398V20.0455H21V17.5398C21 14.8336 18.795 12.6537 15.9862 12.5284C14.5688 14.0569 12.6263 15.0341 10.5 15.0341C8.37375 15.0341 6.43125 14.0569 5.01375 12.5284Z" fill="white"/>
<path d="M6.25 6.2642C6.25 3.18731 8.3218 1 10.5 1C12.6782 1 14.75 3.18731 14.75 6.2642C14.75 9.34109 12.6782 11.5284 10.5 11.5284C8.3218 11.5284 6.25 9.34109 6.25 6.2642ZM1 17.5398C1 15.55 2.54635 13.8574 4.63082 13.5667C6.1773 15.0671 8.23326 16.0341 10.5 16.0341C12.767 16.0341 14.8232 15.0669 16.3697 13.5662C18.4718 13.8551 20 15.5457 20 17.5398V19.0455H1V17.5398Z" stroke="black" stroke-opacity="0.55" stroke-width="2"/>
</svg>
