<svg width="21" height="21" viewBox="0 0 21 21" fill="none" xmlns="http://www.w3.org/2000/svg">
<path d="M14.4375 0C10.815 0 7.875 2.94 7.875 6.5625C7.875 6.9825 7.875 7.4025 7.95375 7.79625L0 15.75V21H7.875V15.75H13.125V13.125L13.2038 13.0462C13.5975 13.125 14.0175 13.125 14.4375 13.125C18.06 13.125 21 10.185 21 6.5625C21 2.94 18.06 0 14.4375 0ZM15.75 2.625C17.1938 2.625 18.375 3.80625 18.375 5.25C18.375 6.69375 17.1938 7.875 15.75 7.875C14.3062 7.875 13.125 6.69375 13.125 5.25C13.125 3.80625 14.3062 2.625 15.75 2.625Z" fill="#FFF5F5"/>
<path d="M8.66086 8.50336L9.03929 8.12492L8.93433 7.60013C8.87846 7.32075 8.875 7.00278 8.875 6.5625C8.875 3.49228 11.3673 1 14.4375 1C17.5077 1 20 3.49228 20 6.5625C20 9.63272 17.5077 12.125 14.4375 12.125C13.9972 12.125 13.6792 12.1215 13.3999 12.0657L12.8751 11.9607L12.4966 12.3391L12.4179 12.4179L12.125 12.7108V13.125V14.75H7.875H6.875V15.75V20H1V16.1642L8.66086 8.50336ZM19.375 5.25C19.375 3.25397 17.746 1.625 15.75 1.625C13.754 1.625 12.125 3.25397 12.125 5.25C12.125 7.24603 13.754 8.875 15.75 8.875C17.746 8.875 19.375 7.24603 19.375 5.25Z" stroke="black" stroke-opacity="0.55" stroke-width="2"/>
</svg>
